<svg id="Layer_1" data-name="Layer 1" xmlns="http://www.w3.org/2000/svg" xmlns:xlink="http://www.w3.org/1999/xlink" viewBox="0 0 121.15 107.08"><defs><linearGradient id="New_Gradient_Swatch_4" x1="296.38" y1="347.92" x2="296.38" y2="455" gradientUnits="userSpaceOnUse"><stop offset="0" stop-color="#57a7dc"/><stop offset="0.24" stop-color="#55a2d9"/><stop offset="0.53" stop-color="#5094cf"/><stop offset="0.83" stop-color="#477cbf"/><stop offset="1" stop-color="#416cb4"/></linearGradient><linearGradient id="New_Gradient_Swatch_6" x1="291.51" y1="347.92" x2="291.51" y2="443.85" gradientUnits="userSpaceOnUse"><stop offset="0" stop-color="#f16a7e"/><stop offset="1" stop-color="#dd2376"/></linearGradient></defs><path d="M342.48,448.43l-4.89-30.66a117.84,117.84,0,0,1-9.62,6.87,155.67,155.67,0,0,1-19.58,10.58,168.25,168.25,0,0,1-20.9,7.79,121.15,121.15,0,0,1-22.36,4.48c-2.7.24-5.15.36-7.49.36h0c-1.54,0-3.07-.05-4.55-.16-.85-.07-1.73-.15-2.64-.27l-.16,1a5.68,5.68,0,0,0,5.61,6.57h81A5.67,5.67,0,0,0,342.48,448.43Z" transform="translate(-230.94 -347.92)" fill="url(#New_Gradient_Swatch_4)"/><path d="M351.88,388.35a9.65,9.65,0,0,0-2.63-4.94,14.07,14.07,0,0,0-4.56-3,32,32,0,0,0-10.45-2.21A31.63,31.63,0,0,1,344.4,381a13.08,13.08,0,0,1,4.09,3.09,8.51,8.51,0,0,1,2,4.48c.44,3.3-1,6.6-2.85,9.44a42.24,42.24,0,0,1-6.84,7.75q-2.19,2-4.55,3.76l-.72-4.51-4.46-28a5.68,5.68,0,0,0-5.61-4.79h-4.78a24.33,24.33,0,0,0-48.66,0h-4.78a5.68,5.68,0,0,0-5.61,4.79l-8.53,53.51-.63,3.93a22.07,22.07,0,0,1-6.74-2.23,7.87,7.87,0,0,1-2.53-2.1,3.94,3.94,0,0,1-.8-2.22,7.45,7.45,0,0,1,.65-3.1l3.3,2.83,3.75-20-19.19,6.74,3.6,3.09a25.92,25.92,0,0,0-1.68,4.09,17.52,17.52,0,0,0-.72,7.54,14.32,14.32,0,0,0,3.38,7.41,17.76,17.76,0,0,0,5.87,4.33,31.06,31.06,0,0,0,9.68,2.6c.77.1,1.54.18,2.3.24a68.36,68.36,0,0,0,11.38-.2,116.59,116.59,0,0,0,21.6-4.33,159.09,159.09,0,0,0,20.38-7.6,150.25,150.25,0,0,0,19.07-10.29,107.51,107.51,0,0,0,11.06-8.08,77.72,77.72,0,0,0,5.9-5.44,44.53,44.53,0,0,0,6.68-8.66A22.24,22.24,0,0,0,351.6,394,12.3,12.3,0,0,0,351.88,388.35Zm-55.5-38.43a22.35,22.35,0,0,1,22.33,22.32H274.05A22.35,22.35,0,0,1,296.38,349.92Z" transform="translate(-230.94 -347.92)" fill="url(#New_Gradient_Swatch_6)"/></svg>